<?xml version="1.0" encoding="UTF-8"?>
<!DOCTYPE svg PUBLIC "-//W3C//DTD SVG 1.1//EN" "http://www.w3.org/Graphics/SVG/1.1/DTD/svg11.dtd">
<!-- Creator: CorelDRAW X5 -->
<svg xmlns="http://www.w3.org/2000/svg" xml:space="preserve" width="53.9428mm" height="29.7338mm" style="shape-rendering:geometricPrecision; text-rendering:geometricPrecision; image-rendering:optimizeQuality; fill-rule:evenodd; clip-rule:evenodd"
viewBox="0 0 2069 1141"
 xmlns:xlink="http://www.w3.org/1999/xlink">
 <defs>
  <style type="text/css">
   <![CDATA[
    .str0 {stroke:#332C2B;stroke-width:3.836}
    .fil0 {fill:none}
    .fil1 {fill:#F49E10}
    .fil2 {fill:#FEFEFE;fill-rule:nonzero}
    .fil3 {fill:#2F3844;fill-rule:nonzero}
   ]]>
  </style>
 </defs>
 <g id="图层_x0020_1">
  <metadata id="CorelCorpID_0Corel-Layer"/>
  <polygon class="fil0 str0" points="2,2 2067,2 2067,1139 2,1139 "/>
  <polygon class="fil1" points="186,93 1925,93 1925,1022 186,1022 "/>
  <path class="fil2" d="M512 829c43,0 80,-6 112,-18 32,-12 59,-29 80,-52 21,-22 37,-49 48,-80 11,-31 16,-65 16,-103l0 -419 -110 0 0 411c0,34 -5,63 -15,87 -10,24 -26,42 -47,54 -21,12 -49,19 -82,19 -34,0 -61,-7 -83,-19 -21,-13 -37,-31 -47,-55 -10,-24 -15,-53 -15,-86l0 -410 -112 0 0 420c0,38 5,72 14,103 10,31 25,57 45,79 21,22 47,39 80,51 32,12 71,18 117,18zm538 -11l113 0 0 -661 -113 0 0 661zm404 0l416 0 0 -102 -305 0 0 -559 -112 0 0 661z"/>
  <path class="fil3" d="M305 986c5,0 10,-1 14,-2 4,-1 7,-4 10,-6 3,-3 5,-6 6,-10 1,-4 2,-8 2,-12l0 -51 -13 0 0 50c0,4 -1,8 -2,10 -1,3 -3,5 -6,7 -3,1 -6,2 -10,2 -4,0 -7,-1 -10,-2 -3,-2 -5,-4 -6,-7 -1,-3 -2,-6 -2,-10l0 -50 -14 0 0 51c0,5 1,9 2,12 1,4 3,7 6,10 2,3 6,5 10,6 4,1 9,2 14,2zm65 -1l13 0 0 -36c1,-2 3,-4 4,-5 2,-2 4,-3 6,-4 2,-1 5,-1 8,-1 0,0 1,0 1,0 0,0 1,0 1,0 0,0 1,0 1,0l0 -12 -1 0c-4,0 -7,1 -9,1 -3,1 -5,2 -7,4 -2,2 -3,3 -5,5l0 0 0 -9 -13 0 0 57zm93 1c4,0 7,-1 10,-2 3,-1 6,-3 8,-6 2,-2 4,-6 5,-9 1,-4 2,-8 2,-13 0,-5 -1,-9 -2,-13 -1,-4 -3,-7 -5,-9 -2,-2 -4,-4 -7,-6 -3,-1 -6,-2 -9,-2 -3,0 -5,0 -8,1 -2,1 -4,2 -6,3 -2,1 -3,3 -5,4l0 -30 -13 0 0 80 13 0 0 -6c1,2 3,3 5,4 2,1 4,2 6,2 2,1 4,1 6,1zm-3 -11c-2,0 -3,0 -5,-1 -2,-1 -3,-1 -5,-2 -1,-1 -3,-2 -4,-4l0 -23c1,-1 2,-2 4,-4 1,-1 3,-2 5,-3 2,-1 4,-1 5,-1 3,0 5,1 7,2 2,1 4,3 5,6 1,3 2,6 2,10 0,4 0,8 -1,11 -1,3 -2,5 -5,6 -2,1 -5,2 -8,2zm70 11c4,0 8,-1 12,-2 4,-1 7,-3 10,-6 0,1 0,2 0,3 0,1 0,2 0,2 0,1 0,1 1,2l13 0c-1,-1 -1,-3 -1,-6 0,-2 0,-5 0,-9l0 -24c0,-4 -1,-8 -2,-11 -1,-3 -3,-5 -7,-7 -3,-2 -7,-2 -12,-2 -4,0 -8,1 -11,1 -3,1 -7,2 -9,4 -3,2 -5,3 -7,5l6 8c2,-1 3,-3 5,-4 2,-1 4,-2 6,-3 2,-1 5,-1 8,-1 3,0 6,1 7,2 2,1 2,3 2,6l0 2c-7,1 -12,2 -17,3 -5,1 -9,3 -12,5 -3,2 -5,4 -7,7 -1,3 -2,5 -2,9 0,3 1,6 2,8 1,2 3,4 6,5 2,1 5,2 8,2zm5 -10c-2,0 -4,-1 -6,-2 -1,-1 -2,-3 -2,-5 0,-3 2,-6 6,-8 4,-2 10,-4 18,-5l0 13c-2,2 -4,4 -7,5 -3,1 -6,2 -9,2zm62 9l13 0 0 -40c2,-1 3,-3 5,-4 2,-1 3,-2 5,-3 2,-1 4,-1 6,-1 3,0 5,1 6,2 1,2 2,4 2,7l0 38 13 0 0 -41c0,-4 -1,-7 -2,-10 -1,-3 -3,-5 -6,-6 -2,-1 -5,-2 -9,-2 -3,0 -5,0 -7,1 -2,1 -4,1 -6,2 -2,1 -3,2 -5,3 -1,1 -2,2 -3,3l0 -8 -13 0 0 57zm165 0l14 0 0 -80 -14 0 0 80zm50 0l13 0 0 -40c2,-1 3,-3 5,-4 2,-1 3,-2 5,-3 2,-1 4,-1 6,-1 3,0 5,1 6,2 1,2 2,4 2,7l0 38 13 0 0 -41c0,-4 -1,-7 -2,-10 -1,-3 -3,-5 -6,-6 -2,-1 -5,-2 -9,-2 -3,0 -5,0 -7,1 -2,1 -4,1 -6,2 -2,1 -3,2 -5,3 -1,1 -2,2 -3,3l0 -8 -13 0 0 57zm89 0l13 0 0 -47 13 0 0 -11 -13 0 0 -5c0,-2 0,-4 1,-5 1,-1 2,-2 3,-2 1,0 3,-1 4,-1 1,0 1,0 2,0 1,0 1,0 2,0 1,0 1,0 1,0l0 -10c0,0 -1,0 -1,0 -1,0 -1,0 -2,0 -1,0 -2,0 -2,0 -1,0 -2,0 -2,0 -4,0 -7,0 -9,1 -2,1 -4,2 -6,4 -1,2 -2,3 -3,5 -1,2 -1,4 -1,7l0 6 -10 0 0 11 10 0 0 47zm79 1c3,0 6,0 8,-1 3,-1 5,-2 8,-3 2,-2 4,-3 6,-6 2,-2 3,-5 4,-8 1,-3 2,-7 2,-11 0,-4 -1,-8 -2,-11 -1,-3 -2,-6 -4,-8 -2,-2 -4,-4 -6,-6 -2,-1 -5,-3 -8,-3 -3,-1 -5,-1 -8,-1 -3,0 -6,0 -8,1 -3,1 -5,2 -8,3 -2,2 -4,3 -6,6 -2,2 -3,5 -4,8 -1,3 -2,7 -2,11 0,4 1,8 2,11 1,3 2,6 4,8 2,2 4,4 6,6 2,2 5,3 8,3 3,1 5,1 8,1zm0 -11c-3,0 -6,-1 -8,-2 -2,-2 -4,-4 -5,-7 -1,-3 -2,-6 -2,-10 0,-4 1,-7 2,-10 1,-3 3,-5 5,-6 2,-1 5,-2 8,-2 3,0 6,1 8,2 2,2 4,4 5,7 1,3 2,6 2,10 0,4 -1,7 -2,10 -1,3 -3,5 -5,6 -2,1 -5,2 -8,2zm58 10l13 0 0 -36c1,-2 3,-4 4,-5 2,-2 4,-3 6,-4 2,-1 5,-1 8,-1 0,0 1,0 1,0 0,0 1,0 1,0 0,0 1,0 1,0l0 -12 -1 0c-4,0 -7,1 -9,1 -3,1 -5,2 -7,4 -2,2 -3,3 -5,5l0 0 0 -9 -13 0 0 57zm63 0l13 0 0 -40c2,-1 3,-3 5,-4 2,-1 3,-2 5,-3 2,-1 3,-1 5,-1 2,0 4,0 5,1 1,1 2,2 3,3 0,1 1,3 1,5l0 38 13 0 0 -40c2,-1 3,-3 5,-4 2,-1 3,-2 5,-3 2,-1 3,-1 5,-1 2,0 4,0 5,1 1,1 2,2 3,3 0,1 1,3 1,5l0 38 13 0 0 -41c0,-3 -1,-6 -2,-9 -1,-3 -3,-5 -5,-6 -2,-1 -6,-2 -10,-2 -3,0 -6,0 -8,1 -2,1 -5,2 -7,3 -2,1 -4,3 -5,5 -1,-2 -2,-4 -3,-5 -1,-1 -3,-3 -5,-3 -2,-1 -5,-1 -8,-1 -3,0 -6,0 -8,1 -2,1 -5,2 -7,3 -2,1 -4,3 -5,4l0 -8 -13 0 0 57zm131 1c4,0 8,-1 12,-2 4,-1 7,-3 10,-6 0,1 0,2 0,3 0,1 0,2 0,2 0,1 0,1 1,2l13 0c-1,-1 -1,-3 -1,-6 0,-2 0,-5 0,-9l0 -24c0,-4 -1,-8 -2,-11 -1,-3 -3,-5 -7,-7 -3,-2 -7,-2 -12,-2 -4,0 -8,1 -11,1 -3,1 -7,2 -9,4 -3,2 -5,3 -7,5l6 8c2,-1 3,-3 5,-4 2,-1 4,-2 6,-3 2,-1 5,-1 8,-1 3,0 6,1 7,2 2,1 2,3 2,6l0 2c-7,1 -12,2 -17,3 -5,1 -9,3 -12,5 -3,2 -5,4 -7,7 -1,3 -2,5 -2,9 0,3 1,6 2,8 1,2 3,4 6,5 2,1 5,2 8,2zm5 -10c-2,0 -4,-1 -6,-2 -1,-1 -2,-3 -2,-5 0,-3 2,-6 6,-8 4,-2 10,-4 18,-5l0 13c-2,2 -4,4 -7,5 -3,1 -6,2 -9,2zm85 10c1,0 2,0 3,0 1,0 2,0 3,0 1,0 2,0 2,0 1,0 1,0 2,0l0 -11c0,0 -1,0 -2,0 -1,0 -1,0 -2,0 -1,0 -1,0 -2,0 -2,0 -4,0 -5,-1 -1,-1 -2,-2 -3,-3 -1,-1 -1,-3 -1,-5l0 -28 15 0 0 -11 -15 0 0 -20 -13 0 0 20 -10 0 0 11 10 0 0 32c0,3 0,5 1,7 1,2 1,4 3,5 1,1 3,2 5,3 2,1 5,1 9,1zm40 -68l14 0 0 -12 -14 0 0 12zm0 67l13 0 0 -57 -13 0 0 57zm72 1c3,0 6,0 8,-1 3,-1 5,-2 8,-3 2,-2 4,-3 6,-6 2,-2 3,-5 4,-8 1,-3 2,-7 2,-11 0,-4 -1,-8 -2,-11 -1,-3 -2,-6 -4,-8 -2,-2 -4,-4 -6,-6 -2,-1 -5,-3 -8,-3 -3,-1 -5,-1 -8,-1 -3,0 -6,0 -8,1 -3,1 -5,2 -8,3 -2,2 -4,3 -6,6 -2,2 -3,5 -4,8 -1,3 -2,7 -2,11 0,4 1,8 2,11 1,3 2,6 4,8 2,2 4,4 6,6 2,2 5,3 8,3 3,1 5,1 8,1zm0 -11c-3,0 -6,-1 -8,-2 -2,-2 -4,-4 -5,-7 -1,-3 -2,-6 -2,-10 0,-4 1,-7 2,-10 1,-3 3,-5 5,-6 2,-1 5,-2 8,-2 3,0 6,1 8,2 2,2 4,4 5,7 1,3 2,6 2,10 0,4 -1,7 -2,10 -1,3 -3,5 -5,6 -2,1 -5,2 -8,2zm58 10l13 0 0 -40c2,-1 3,-3 5,-4 2,-1 3,-2 5,-3 2,-1 4,-1 6,-1 3,0 5,1 6,2 1,2 2,4 2,7l0 38 13 0 0 -41c0,-4 -1,-7 -2,-10 -1,-3 -3,-5 -6,-6 -2,-1 -5,-2 -9,-2 -3,0 -5,0 -7,1 -2,1 -4,1 -6,2 -2,1 -3,2 -5,3 -1,1 -2,2 -3,3l0 -8 -13 0 0 57zm164 0l50 0 0 -12 -37 0 0 -68 -14 0 0 80zm92 1c4,0 8,-1 12,-2 4,-1 7,-3 10,-6 0,1 0,2 0,3 0,1 0,2 0,2 0,1 0,1 1,2l13 0c-1,-1 -1,-3 -1,-6 0,-2 0,-5 0,-9l0 -24c0,-4 -1,-8 -2,-11 -1,-3 -3,-5 -7,-7 -3,-2 -7,-2 -12,-2 -4,0 -8,1 -11,1 -3,1 -7,2 -9,4 -3,2 -5,3 -7,5l6 8c2,-1 3,-3 5,-4 2,-1 4,-2 6,-3 2,-1 5,-1 8,-1 3,0 6,1 7,2 2,1 2,3 2,6l0 2c-7,1 -12,2 -17,3 -5,1 -9,3 -12,5 -3,2 -5,4 -7,7 -1,3 -2,5 -2,9 0,3 1,6 2,8 1,2 3,4 6,5 2,1 5,2 8,2zm5 -10c-2,0 -4,-1 -6,-2 -1,-1 -2,-3 -2,-5 0,-3 2,-6 6,-8 4,-2 10,-4 18,-5l0 13c-2,2 -4,4 -7,5 -3,1 -6,2 -9,2zm92 10c4,0 7,-1 10,-2 3,-1 6,-3 8,-6 2,-2 4,-6 5,-9 1,-4 2,-8 2,-13 0,-5 -1,-9 -2,-13 -1,-4 -3,-7 -5,-9 -2,-2 -4,-4 -7,-6 -3,-1 -6,-2 -9,-2 -3,0 -5,0 -8,1 -2,1 -4,2 -6,3 -2,1 -3,3 -5,4l0 -30 -13 0 0 80 13 0 0 -6c1,2 3,3 5,4 2,1 4,2 6,2 2,1 4,1 6,1zm-3 -11c-2,0 -3,0 -5,-1 -2,-1 -3,-1 -5,-2 -1,-1 -3,-2 -4,-4l0 -23c1,-1 2,-2 4,-4 1,-1 3,-2 5,-3 2,-1 4,-1 5,-1 3,0 5,1 7,2 2,1 4,3 5,6 1,3 2,6 2,10 0,4 0,8 -1,11 -1,3 -2,5 -5,6 -2,1 -5,2 -8,2z"/>
 </g>
</svg>
